<svg width="200" height="200" viewBox="0 0 200 200" xmlns="http://www.w3.org/2000/svg">
  <path d="M40 80 L20 20 L80 60 Z" fill="#D35400" /> <path d="M160 80 L180 20 L120 60 Z" fill="#D35400" /> <path d="M45 75 L30 35 L75 65 Z" fill="#2C3E50" /> <path d="M155 75 L170 35 L125 65 Z" fill="#2C3E50" /> <path d="M20 80 L100 110 L180 80 L180 120 L100 190 L20 120 Z" fill="#E67E22" />
  
  <path d="M20 120 L100 190 L60 140 L20 120 Z" fill="#ECF0F1" />
  <path d="M180 120 L100 190 L140 140 L180 120 Z" fill="#ECF0F1" />

  <circle cx="65" cy="115" r="8" fill="#2C3E50" />
  <circle cx="135" cy="115" r="8" fill="#2C3E50" />

  <path d="M90 180 L110 180 L100 195 Z" fill="#2C3E50" />
</svg>
